<?xml version="1.0" standalone="no"?>
<!DOCTYPE svg PUBLIC "-//W3C//DTD SVG 20010904//EN"
 "http://www.w3.org/TR/2001/REC-SVG-20010904/DTD/svg10.dtd">
<svg version="1.0" xmlns="http://www.w3.org/2000/svg"
 width="406.000000pt" height="406.000000pt" viewBox="0 0 406.000000 406.000000"
 preserveAspectRatio="xMidYMid meet">
<metadata>
Created by potrace 1.11, written by Peter Selinger 2001-2013
</metadata>
<g transform="translate(0.000000,406.000000) scale(0.100000,-0.100000)"
fill="#000000" stroke="none">
<path d="M600 3175 l0 -855 -285 0 -285 0 0 -575 0 -575 285 0 285 0 0 -570 0
-570 1718 0 1718 0 -1 288 0 287 -270 2 c-148 1 -406 2 -572 2 l-303 1 0 284
0 284 -267 0 c-148 1 -276 1 -285 1 -17 1 -18 21 -18 284 l0 282 285 -2 285
-2 0 860 0 859 -285 0 -285 0 0 285 0 285 -860 0 -860 0 0 -855z"/>
</g>
</svg>
