<?xml version="1.0" encoding="UTF-8" standalone="no"?>
<svg
   xmlns:dc="http://purl.org/dc/elements/1.1/"
   xmlns:cc="http://creativecommons.org/ns#"
   xmlns:rdf="http://www.w3.org/1999/02/22-rdf-syntax-ns#"
   xmlns:svg="http://www.w3.org/2000/svg"
   xmlns="http://www.w3.org/2000/svg"
   id="svg8"
   version="1.1"
   viewBox="0 0 60.333896 19.876869"
   height="75.125175"
   width="228.03362">
  <defs
     id="defs2" />
  <metadata
     id="metadata5">
    <rdf:RDF>
      <cc:Work
         rdf:about="">
        <dc:format>image/svg+xml</dc:format>
        <dc:type
           rdf:resource="http://purl.org/dc/dcmitype/StillImage" />
        <dc:title></dc:title>
      </cc:Work>
    </rdf:RDF>
  </metadata>
  <g
     transform="translate(71.545776,-343.88635)"
     id="layer1">
    <g
       style="stroke-width:7.43947363"
       transform="matrix(0.13441811,0,0,0.13441811,-71.016609,323.31187)"
       id="g888">
      <path
         style="fill:#e3e6ef;fill-opacity:1;stroke:none;stroke-width:1.96836066px;stroke-linecap:butt;stroke-linejoin:miter;stroke-opacity:1"
         d="m 20,157 v 20 h 40 v 20 h 20 v 20 H 60 v 20 h 40 V 177 H 80 v -20 z"
         id="path1002" />
      <path
         style="fill:#e3e6ef;fill-opacity:1;stroke:none;stroke-width:1.96836066px;stroke-linecap:butt;stroke-linejoin:miter;stroke-opacity:1"
         d="m 20,297 v -40 h 80 v 20 h 40 v 20 z"
         id="path1004" />
      <path
         style="fill:#df1260;fill-opacity:1;stroke:none;stroke-width:1.96836066px;stroke-linecap:butt;stroke-linejoin:miter;stroke-opacity:1"
         d="M 0,257 H 40 V 217 H 20 v 20 H 0 Z"
         id="path1006" />
      <path
         style="fill:#ed98af;fill-opacity:1;stroke:none;stroke-width:1.96836066px;stroke-linecap:butt;stroke-linejoin:miter;stroke-opacity:1"
         d="m 0,217 h 20 v 20 H 0 Z"
         id="path1008" />
      <path
         style="fill:#f1d3bd;fill-opacity:1;stroke:none;stroke-width:1.96836066px;stroke-linecap:butt;stroke-linejoin:miter;stroke-opacity:1"
         d="m 20,197 v 20 h 19.999999 v 40 H 80 V 237 H 60 v -40 z"
         id="path1010" />
      <path
         style="fill:#f5b109;fill-opacity:1;stroke:none;stroke-width:1.96836066px;stroke-linecap:butt;stroke-linejoin:miter;stroke-opacity:1"
         d="M 20,197 H 59.999998 V 177 H 20 Z"
         id="path1012" />
      <path
         style="fill:#f5b109;fill-opacity:1;stroke:none;stroke-width:1.96836066px;stroke-linecap:butt;stroke-linejoin:miter;stroke-opacity:1"
         d="m 59.999998,197 h 20 v 20 h -20 z"
         id="path1014" />
    </g>
    <g
       style="stroke-width:7.43947363"
       transform="matrix(0.13441811,0,0,0.13441811,-95.883407,342.13041)"
       id="g870">
      <path
         style="fill:#1f1814;fill-opacity:1;stroke:none;stroke-width:1.96836066px;stroke-linecap:butt;stroke-linejoin:miter;stroke-opacity:1"
         d="m 345,65 h 17.5 v 52 H 345 Z"
         id="path829" />
      <path
         style="fill:#1f1814;fill-opacity:1;stroke:none;stroke-width:1.96836066px;stroke-linecap:butt;stroke-linejoin:miter;stroke-opacity:1"
         d="m 368,75 h 12.75 l 1.25,6.5 c 12.6139,-13.038318 29.7,-7.154414 29.7,7.5 v 28 H 396 V 90 c 0,-1.485446 -1.5639,-4.3895 -5.36987,-4.3895 -3.69536,0 -6.83013,3.025717 -6.83013,5.3895 v 26 H 368 Z"
         id="path831" />
      <path
         style="fill:#1f1814;fill-opacity:1;stroke:none;stroke-width:7.43947315px;stroke-linecap:butt;stroke-linejoin:miter;stroke-opacity:1"
         d="m 1574.1738,236.2207 v 205.98438 h 49.5117 l 5.2911,-21.54297 c 33.1425,43.06341 117.166,34.68196 117.166,-58.0293 0,-90.57198 -74.8509,-97.06589 -112.252,-64.05078 V 236.2207 Z m 86.5506,88.06277 c 16.7197,0 25.7008,9.71604 25.7008,39.68504 0,27.44362 -7.4678,38.17326 -25.7008,38.17323 -15.2025,0 -27.2126,-9.97201 -27.2126,-38.17323 0,-28.70629 12.0101,-39.68504 27.2126,-39.68504 z"
         id="path833"
         transform="scale(0.26458333)" />
      <path
         style="fill:#1f1814;fill-opacity:1;stroke:none;stroke-width:1.96836066px;stroke-linecap:butt;stroke-linejoin:miter;stroke-opacity:1"
         d="M 465.65007,74 H 481.45 v 43 h -15.79993 z"
         id="path829-1" />
      <path
         style="fill:#1f1814;fill-opacity:1;stroke:none;stroke-width:1.96836066px;stroke-linecap:butt;stroke-linejoin:miter;stroke-opacity:1"
         d="m 485.62507,75 h 6.6 l 3.3,-12.5 h 11.7 V 75 h 9.1 v 10.8 h -9.1 v 18 c 0,2.15937 1.73185,3.6 3.48976,3.6 h 5.61024 v 9.25988 c 0,0 -5.75393,1.34012 -10.8,1.34012 -11.0333,0 -14,-5.47146 -14,-10.42728 V 85.8 h -5.9 z"
         id="path854" />
      <path
         style="fill:#1f1814;fill-opacity:1;stroke:none;stroke-width:1.96836066px;stroke-linecap:butt;stroke-linejoin:miter;stroke-opacity:1"
         d="m 525.49083,117 4.72472,-34.973961 -3.87427,-1.984375 0.66146,-3.307291 13.13468,-1.889879 2.07886,0.850445 -0.75595,7.890253 c 3.76401,-4.582961 7.66496,-8.693453 14.22136,-8.693453 6.20001,0 8.84281,6.217089 9.02418,9.260416 1.96863,-3.953001 6.62642,-9.260416 14.74107,-9.260416 6.8785,0 9.56926,6.158564 9.16593,10.914064 -0.80057,9.439102 -3.02391,18.708357 -3.4018,23.434527 -0.12913,1.61496 0.38072,2.51778 1.7009,2.45684 1.28976,-0.0595 2.83483,-1.6064 2.83483,-1.6064 l 1.2284,2.26786 c 0,0 -3.33124,5.34137 -10.77232,5.34137 -5.45264,0 -7.71003,-3.08808 -7.21698,-6.12094 l 3.43722,-21.143049 c 0.34093,-2.097113 0.70075,-8.409972 -2.74032,-8.409972 -4.26996,0 -7.03742,3.735274 -9.02419,7.370537 L 561.58756,117 h -12.00073 c 1.20244,-9.28956 3.36312,-18.303185 3.36312,-27.83106 0,-4.766891 -0.65883,-7.365296 -2.95126,-7.365296 -4.20789,0 -7.24858,4.450898 -9.3888,8.159895 L 537.01912,117 Z"
         id="path856" />
      <path
         style="fill:#1f1814;fill-opacity:1;stroke:none;stroke-width:1.96836066px;stroke-linecap:butt;stroke-linejoin:miter;stroke-opacity:1"
         d="m 614.10476,74.79285 c -11.8025,0 -23.47658,10.55402 -23.47658,26.43198 0,7.69197 4.88712,16.78295 15.87188,16.78295 11.88574,0 17.0026,-8.76484 17.0026,-8.76484 l -2.33889,-3.60805 c 0,0 -3.87453,6.14743 -10.75748,6.14743 -7.93256,0 -6.88227,-11.22567 -6.88227,-11.22567 10.00498,0 22.46969,-5.806346 22.45083,-15.701882 -0.0104,-5.44373 -3.54881,-10.061918 -11.87009,-10.061918 z m -2.96362,4.917011 c 2.52616,0 3.54137,1.983552 3.54137,5.679241 0,7.540337 -7.28036,10.624159 -11.22516,10.624159 0,-3.997129 1.4306,-16.3034 7.68379,-16.3034 z"
         id="path858" />
    </g>
  </g>
</svg>
